<svg width="182" height="72" viewBox="0 0 182 72" fill="none" xmlns="http://www.w3.org/2000/svg">
<rect x="1" y="1" width="180" height="70" rx="11" fill="white" stroke="black" stroke-width="2"/>
<path d="M72.96 20.336C72.96 21.456 72.7253 22.4427 72.256 23.296C71.7867 24.1493 71.104 24.816 70.208 25.296C69.3227 25.7653 68.2667 26 67.04 26H63.024V14.704H67.04C68.2667 14.704 69.3227 14.9387 70.208 15.408C71.104 15.8667 71.7867 16.5227 72.256 17.376C72.7253 18.2187 72.96 19.2053 72.96 20.336ZM66.848 23.984C68.064 23.984 69.0027 23.664 69.664 23.024C70.336 22.384 70.672 21.488 70.672 20.336C70.672 19.1733 70.336 18.272 69.664 17.632C69.0027 16.992 68.064 16.672 66.848 16.672H65.28V23.984H66.848ZM77.945 17.024C78.809 17.024 79.5823 17.2053 80.265 17.568C80.9583 17.9307 81.5023 18.4587 81.897 19.152C82.2917 19.8347 82.489 20.64 82.489 21.568C82.489 22.496 82.2917 23.3013 81.897 23.984C81.5023 24.6667 80.9583 25.1947 80.265 25.568C79.5823 25.9307 78.809 26.112 77.945 26.112C77.081 26.112 76.3023 25.9307 75.609 25.568C74.9263 25.1947 74.3877 24.6667 73.993 23.984C73.5983 23.3013 73.401 22.496 73.401 21.568C73.401 20.64 73.5983 19.8347 73.993 19.152C74.3877 18.4587 74.9263 17.9307 75.609 17.568C76.3023 17.2053 77.081 17.024 77.945 17.024ZM77.945 18.976C77.3157 18.976 76.7823 19.2 76.345 19.648C75.9077 20.0853 75.689 20.7253 75.689 21.568C75.689 22.4107 75.9077 23.056 76.345 23.504C76.7823 23.9413 77.3157 24.16 77.945 24.16C78.5743 24.16 79.1077 23.9413 79.545 23.504C79.9823 23.056 80.201 22.4107 80.201 21.568C80.201 20.7253 79.9823 20.0853 79.545 19.648C79.1077 19.2 78.5743 18.976 77.945 18.976ZM95.9714 17.136L93.5874 26H91.0914L89.1874 19.552L87.2354 26H84.7394L82.3714 17.136H84.6274L86.0674 23.984L88.0354 17.136H90.4194L92.4034 23.984L93.8594 17.136H95.9714ZM101.576 17.008C102.6 17.008 103.416 17.344 104.024 18.016C104.632 18.688 104.936 19.632 104.936 20.848V26H102.696V21.104C102.696 20.4 102.515 19.856 102.152 19.472C101.789 19.0773 101.293 18.88 100.664 18.88C100.024 18.88 99.5119 19.088 99.1279 19.504C98.7439 19.92 98.5519 20.5173 98.5519 21.296V26H96.2959V17.136H98.5519V18.912C98.7865 18.3147 99.1705 17.8507 99.7039 17.52C100.248 17.1787 100.872 17.008 101.576 17.008ZM108.377 14.16V26H106.121V14.16H108.377ZM113.714 17.024C114.578 17.024 115.351 17.2053 116.034 17.568C116.727 17.9307 117.271 18.4587 117.666 19.152C118.06 19.8347 118.258 20.64 118.258 21.568C118.258 22.496 118.06 23.3013 117.666 23.984C117.271 24.6667 116.727 25.1947 116.034 25.568C115.351 25.9307 114.578 26.112 113.714 26.112C112.85 26.112 112.071 25.9307 111.378 25.568C110.695 25.1947 110.156 24.6667 109.762 23.984C109.367 23.3013 109.17 22.496 109.17 21.568C109.17 20.64 109.367 19.8347 109.762 19.152C110.156 18.4587 110.695 17.9307 111.378 17.568C112.071 17.2053 112.85 17.024 113.714 17.024ZM113.714 18.976C113.084 18.976 112.551 19.2 112.114 19.648C111.676 20.0853 111.458 20.7253 111.458 21.568C111.458 22.4107 111.676 23.056 112.114 23.504C112.551 23.9413 113.084 24.16 113.714 24.16C114.343 24.16 114.876 23.9413 115.314 23.504C115.751 23.056 115.97 22.4107 115.97 21.568C115.97 20.7253 115.751 20.0853 115.314 19.648C114.876 19.2 114.343 18.976 113.714 18.976ZM122.524 17.024C123.271 17.024 123.911 17.2 124.444 17.552C124.977 17.904 125.356 18.3787 125.58 18.976V17.136H127.82V26H125.58V24.144C125.356 24.7413 124.977 25.2213 124.444 25.584C123.911 25.936 123.271 26.112 122.524 26.112C121.777 26.112 121.105 25.9307 120.508 25.568C119.911 25.2053 119.441 24.6827 119.1 24C118.769 23.3067 118.604 22.496 118.604 21.568C118.604 20.64 118.769 19.8347 119.1 19.152C119.441 18.4587 119.911 17.9307 120.508 17.568C121.105 17.2053 121.777 17.024 122.524 17.024ZM123.228 18.992C122.524 18.992 121.959 19.2213 121.532 19.68C121.105 20.1387 120.892 20.768 120.892 21.568C120.892 22.368 121.105 22.9973 121.532 23.456C121.959 23.904 122.524 24.128 123.228 24.128C123.911 24.128 124.471 23.8987 124.908 23.44C125.356 22.9707 125.58 22.3467 125.58 21.568C125.58 20.7787 125.356 20.1547 124.908 19.696C124.471 19.2267 123.911 18.992 123.228 18.992ZM132.537 17.024C133.283 17.024 133.918 17.2 134.441 17.552C134.974 17.904 135.358 18.3787 135.593 18.976V14.16H137.833V26H135.593V24.144C135.358 24.7413 134.974 25.2213 134.441 25.584C133.918 25.936 133.283 26.112 132.537 26.112C131.79 26.112 131.118 25.9307 130.521 25.568C129.923 25.2053 129.454 24.6827 129.113 24C128.782 23.3067 128.617 22.496 128.617 21.568C128.617 20.64 128.782 19.8347 129.113 19.152C129.454 18.4587 129.923 17.9307 130.521 17.568C131.118 17.2053 131.79 17.024 132.537 17.024ZM133.241 18.992C132.537 18.992 131.971 19.2213 131.545 19.68C131.118 20.1387 130.905 20.768 130.905 21.568C130.905 22.368 131.118 22.9973 131.545 23.456C131.971 23.904 132.537 24.128 133.241 24.128C133.923 24.128 134.483 23.8987 134.921 23.44C135.369 22.9707 135.593 22.3467 135.593 21.568C135.593 20.7787 135.369 20.1547 134.921 19.696C134.483 19.2267 133.923 18.992 133.241 18.992ZM149.182 24.064V26H147.998C147.006 26 146.243 25.76 145.71 25.28C145.187 24.8 144.926 24 144.926 22.88V19.04H143.694V17.136H144.926V14.944H147.182V17.136H149.166V19.04H147.182V22.912C147.182 23.3387 147.267 23.6373 147.438 23.808C147.609 23.9787 147.897 24.064 148.302 24.064H149.182ZM155.285 17.008C156.309 17.008 157.125 17.344 157.733 18.016C158.341 18.688 158.645 19.632 158.645 20.848V26H156.405V21.104C156.405 20.4 156.224 19.856 155.861 19.472C155.499 19.0773 155.003 18.88 154.373 18.88C153.733 18.88 153.221 19.088 152.837 19.504C152.453 19.92 152.261 20.5173 152.261 21.296V26H150.005V14.16H152.261V18.912C152.496 18.3147 152.88 17.8507 153.413 17.52C153.957 17.1787 154.581 17.008 155.285 17.008ZM168.166 21.232C168.166 21.456 168.14 21.712 168.086 22H161.59C161.622 22.7893 161.836 23.3707 162.23 23.744C162.625 24.1173 163.116 24.304 163.702 24.304C164.225 24.304 164.657 24.176 164.998 23.92C165.35 23.664 165.574 23.3173 165.67 22.88H168.054C167.937 23.4987 167.686 24.0533 167.302 24.544C166.918 25.0347 166.422 25.4187 165.814 25.696C165.217 25.9733 164.55 26.112 163.814 26.112C162.95 26.112 162.182 25.9307 161.51 25.568C160.838 25.1947 160.316 24.6667 159.942 23.984C159.569 23.3013 159.382 22.496 159.382 21.568C159.382 20.64 159.569 19.8347 159.942 19.152C160.316 18.4587 160.838 17.9307 161.51 17.568C162.182 17.2053 162.95 17.024 163.814 17.024C164.689 17.024 165.452 17.2053 166.102 17.568C166.764 17.9307 167.27 18.432 167.622 19.072C167.985 19.7013 168.166 20.4213 168.166 21.232ZM165.894 21.008C165.926 20.2827 165.734 19.7333 165.318 19.36C164.913 18.9867 164.412 18.8 163.814 18.8C163.206 18.8 162.694 18.9867 162.278 19.36C161.862 19.7333 161.633 20.2827 161.59 21.008H165.894Z" fill="black"/>
<path d="M73.32 53L68.392 45.104H66.124V53H62.932V33.232H69.904C72.1627 33.232 73.8707 33.7827 75.028 34.884C76.204 35.9853 76.792 37.4413 76.792 39.252C76.792 40.8013 76.3533 42.0707 75.476 43.06C74.6173 44.0493 73.3667 44.684 71.724 44.964L76.904 53H73.32ZM66.124 42.836H69.652C72.228 42.836 73.516 41.6973 73.516 39.42C73.516 38.3373 73.1987 37.4973 72.564 36.9C71.948 36.284 70.9773 35.976 69.652 35.976H66.124V42.836ZM88.1224 53L82.5784 46.14V53H79.3864V32.28H82.5784V44.152L88.0664 37.572H91.9024L85.1824 45.244L92.0704 53H88.1224ZM97.064 50.508H103.896V53H93.872V33.232H97.064V50.508ZM120.339 37.572V53H117.119V49.64C116.727 50.7787 116.046 51.6653 115.075 52.3C114.105 52.916 112.975 53.224 111.687 53.224C109.895 53.224 108.458 52.6453 107.375 51.488C106.293 50.3307 105.751 48.6787 105.751 46.532V37.572H108.943V46.196C108.943 47.596 109.298 48.6787 110.007 49.444C110.717 50.1907 111.687 50.564 112.919 50.564C114.189 50.564 115.206 50.1533 115.971 49.332C116.737 48.5107 117.119 47.316 117.119 45.748V37.572H120.339ZM130.07 37.376C131.47 37.376 132.665 37.7213 133.654 38.412C134.644 39.1027 135.334 40.0173 135.726 41.156V32.28H138.946V53H135.726V49.416C135.334 50.5547 134.644 51.4693 133.654 52.16C132.665 52.8507 131.47 53.196 130.07 53.196C128.726 53.196 127.522 52.8787 126.458 52.244C125.413 51.6093 124.592 50.6947 123.994 49.5C123.397 48.3053 123.098 46.896 123.098 45.272C123.098 43.6667 123.397 42.2667 123.994 41.072C124.592 39.8773 125.413 38.9627 126.458 38.328C127.522 37.6933 128.726 37.376 130.07 37.376ZM131.05 40.176C129.632 40.176 128.493 40.6333 127.634 41.548C126.794 42.444 126.374 43.6853 126.374 45.272C126.374 46.8587 126.794 48.1093 127.634 49.024C128.493 49.92 129.632 50.368 131.05 50.368C131.946 50.368 132.749 50.1627 133.458 49.752C134.168 49.3227 134.728 48.7253 135.138 47.96C135.549 47.1947 135.754 46.2987 135.754 45.272C135.754 44.264 135.549 43.3773 135.138 42.612C134.728 41.828 134.168 41.2307 133.458 40.82C132.749 40.3907 131.946 40.176 131.05 40.176ZM149.553 37.376C151.046 37.376 152.39 37.6933 153.585 38.328C154.78 38.9627 155.713 39.8773 156.385 41.072C157.057 42.2667 157.393 43.6667 157.393 45.272C157.393 46.896 157.057 48.3053 156.385 49.5C155.713 50.6947 154.78 51.6093 153.585 52.244C152.39 52.8787 151.046 53.196 149.553 53.196C148.06 53.196 146.716 52.8787 145.521 52.244C144.345 51.6093 143.412 50.6947 142.721 49.5C142.049 48.2867 141.713 46.8773 141.713 45.272C141.713 43.6667 142.049 42.2667 142.721 41.072C143.412 39.8773 144.345 38.9627 145.521 38.328C146.716 37.6933 148.06 37.376 149.553 37.376ZM149.553 40.148C148.732 40.148 147.976 40.3347 147.285 40.708C146.594 41.0813 146.034 41.66 145.605 42.444C145.194 43.2093 144.989 44.152 144.989 45.272C144.989 46.4107 145.194 47.3627 145.605 48.128C146.034 48.8933 146.594 49.4627 147.285 49.836C147.976 50.2093 148.732 50.396 149.553 50.396C150.374 50.396 151.13 50.2093 151.821 49.836C152.512 49.4627 153.062 48.8933 153.473 48.128C153.902 47.3627 154.117 46.4107 154.117 45.272C154.117 44.152 153.902 43.2093 153.473 42.444C153.062 41.66 152.512 41.0813 151.821 40.708C151.13 40.3347 150.374 40.148 149.553 40.148Z" fill="black"/>
<path d="M24.1685 21.944C26.9575 19.7094 30.4262 18.4943 34 18.5C37.7188 18.5 41.1365 19.788 43.8315 21.944L46.3742 19.4013L48.8488 21.8758L46.306 24.4185C48.5406 27.2076 49.7557 30.6762 49.75 34.25V36H18.25V34.25C18.25 30.5313 19.538 27.1135 21.694 24.4185L19.1513 21.8775L21.6257 19.403L24.1685 21.9458V21.944ZM18.25 39.5H49.75V51.75C49.75 52.2141 49.5656 52.6593 49.2374 52.9875C48.9092 53.3156 48.4641 53.5 48 53.5H20C19.5359 53.5 19.0908 53.3156 18.7626 52.9875C18.4344 52.6593 18.25 52.2141 18.25 51.75V39.5ZM28.75 30.75C29.2141 30.75 29.6592 30.5656 29.9874 30.2375C30.3156 29.9093 30.5 29.4641 30.5 29C30.5 28.5359 30.3156 28.0908 29.9874 27.7626C29.6592 27.4344 29.2141 27.25 28.75 27.25C28.2859 27.25 27.8408 27.4344 27.5126 27.7626C27.1844 28.0908 27 28.5359 27 29C27 29.4641 27.1844 29.9093 27.5126 30.2375C27.8408 30.5656 28.2859 30.75 28.75 30.75ZM39.25 30.75C39.7141 30.75 40.1592 30.5656 40.4874 30.2375C40.8156 29.9093 41 29.4641 41 29C41 28.5359 40.8156 28.0908 40.4874 27.7626C40.1592 27.4344 39.7141 27.25 39.25 27.25C38.7859 27.25 38.3408 27.4344 38.0126 27.7626C37.6844 28.0908 37.5 28.5359 37.5 29C37.5 29.4641 37.6844 29.9093 38.0126 30.2375C38.3408 30.5656 38.7859 30.75 39.25 30.75Z" fill="black"/>
</svg>
