<svg width="40" height="40" viewBox="0 0 40 40" fill="none" xmlns="http://www.w3.org/2000/svg">
<rect width="40" height="40" rx="10" fill="#C13584"/>
<path d="M23.22 20.5C23.22 21.038 23.0605 21.5638 22.7616 22.0112C22.4627 22.4585 22.0379 22.8071 21.5409 23.013C21.0439 23.2188 20.497 23.2727 19.9694 23.1677C19.4417 23.0628 18.9571 22.8037 18.5767 22.4233C18.1963 22.0429 17.9372 21.5583 17.8323 21.0306C17.7273 20.503 17.7812 19.9561 17.987 19.4591C18.1929 18.9621 18.5415 18.5373 18.9888 18.2384C19.4362 17.9395 19.962 17.78 20.5 17.78C21.2207 17.7822 21.9112 18.0695 22.4209 18.5791C22.9305 19.0888 23.2178 19.7793 23.22 20.5ZM29 16.76V24.24C29 25.5024 28.4985 26.7132 27.6058 27.6058C26.7132 28.4985 25.5024 29 24.24 29H16.76C15.4976 29 14.2868 28.4985 13.3942 27.6058C12.5015 26.7132 12 25.5024 12 24.24V16.76C12 15.4976 12.5015 14.2868 13.3942 13.3942C14.2868 12.5015 15.4976 12 16.76 12H24.24C25.5024 12 26.7132 12.5015 27.6058 13.3942C28.4985 14.2868 29 15.4976 29 16.76ZM24.58 20.5C24.58 19.6931 24.3407 18.9042 23.8924 18.2333C23.4441 17.5623 22.8069 17.0394 22.0613 16.7306C21.3158 16.4218 20.4955 16.341 19.704 16.4984C18.9126 16.6558 18.1856 17.0444 17.615 17.615C17.0444 18.1856 16.6558 18.9126 16.4984 19.704C16.341 20.4955 16.4218 21.3158 16.7306 22.0613C17.0394 22.8069 17.5623 23.4441 18.2333 23.8924C18.9042 24.3407 19.6931 24.58 20.5 24.58C21.5821 24.58 22.6198 24.1501 23.385 23.385C24.1501 22.6198 24.58 21.5821 24.58 20.5ZM25.94 16.08C25.94 15.8783 25.8802 15.6811 25.7681 15.5133C25.656 15.3456 25.4967 15.2148 25.3103 15.1376C25.124 15.0604 24.9189 15.0402 24.721 15.0796C24.5231 15.119 24.3414 15.2161 24.1988 15.3588C24.0561 15.5014 23.959 15.6831 23.9196 15.881C23.8802 16.0789 23.9004 16.284 23.9776 16.4703C24.0548 16.6567 24.1856 16.816 24.3533 16.9281C24.5211 17.0402 24.7183 17.1 24.92 17.1C25.1905 17.1 25.45 16.9925 25.6412 16.8012C25.8325 16.61 25.94 16.3505 25.94 16.08Z" fill="white"/>
</svg>
