<svg width="40" height="40" viewBox="0 0 40 40" fill="none" xmlns="http://www.w3.org/2000/svg">
<rect width="40" height="40" rx="10" fill="#0177B5"/>
<path d="M26.6667 12C27.1529 12 27.6192 12.1932 27.963 12.537C28.3068 12.8808 28.5 13.3471 28.5 13.8333V26.6667C28.5 27.1529 28.3068 27.6192 27.963 27.963C27.6192 28.3068 27.1529 28.5 26.6667 28.5H13.8333C13.3471 28.5 12.8808 28.3068 12.537 27.963C12.1932 27.6192 12 27.1529 12 26.6667V13.8333C12 13.3471 12.1932 12.8808 12.537 12.537C12.8808 12.1932 13.3471 12 13.8333 12H26.6667ZM26.2083 26.2083V21.35C26.2083 20.5574 25.8935 19.7974 25.3331 19.2369C24.7726 18.6765 24.0126 18.3617 23.22 18.3617C22.4408 18.3617 21.5333 18.8383 21.0933 19.5533V18.5358H18.5358V26.2083H21.0933V21.6892C21.0933 20.9833 21.6617 20.4058 22.3675 20.4058C22.7079 20.4058 23.0343 20.541 23.275 20.7817C23.5156 21.0224 23.6508 21.3488 23.6508 21.6892V26.2083H26.2083ZM15.5567 17.0967C15.9651 17.0967 16.3568 16.9344 16.6456 16.6456C16.9344 16.3568 17.0967 15.9651 17.0967 15.5567C17.0967 14.7042 16.4092 14.0075 15.5567 14.0075C15.1458 14.0075 14.7518 14.1707 14.4612 14.4612C14.1707 14.7518 14.0075 15.1458 14.0075 15.5567C14.0075 16.4092 14.7042 17.0967 15.5567 17.0967M16.8308 26.2083V18.5358H14.2917V26.2083H16.8308V26.2083Z" fill="white"/>
</svg>
