<svg width="40" height="40" viewBox="0 0 40 40" fill="none" xmlns="http://www.w3.org/2000/svg">
<rect width="40" height="40" rx="10" fill="#1DA1F2"/>
<path d="M29 13.7647C28.3375 14.0735 27.6233 14.2765 26.8834 14.3735C27.6405 13.9059 28.2256 13.1647 28.501 12.2735C27.7868 12.7147 26.9952 13.0235 26.1606 13.2C25.4809 12.4412 24.5258 12 23.4417 12C21.4197 12 19.7677 13.6941 19.7677 15.7853C19.7677 16.0853 19.8021 16.3765 19.8623 16.65C16.7992 16.4912 14.0717 14.9824 12.2562 12.6971C11.9379 13.2529 11.7572 13.9059 11.7572 14.5941C11.7572 15.9088 12.4025 17.0735 13.4006 17.7353C12.7897 17.7353 12.2218 17.5588 11.7228 17.2941V17.3206C11.7228 19.1559 12.9962 20.6912 14.6826 21.0353C14.1412 21.1872 13.5727 21.2084 13.022 21.0971C13.2557 21.8492 13.7134 22.5074 14.3307 22.9791C14.948 23.4507 15.694 23.7121 16.4637 23.7265C15.159 24.7857 13.5417 25.3582 11.8776 25.35C11.5851 25.35 11.2925 25.3324 11 25.2971C12.6348 26.3735 14.5793 27 16.6616 27C23.4417 27 27.1673 21.2294 27.1673 16.2265C27.1673 16.0588 27.1673 15.9 27.1587 15.7324C27.8815 15.2029 28.501 14.5324 29 13.7647Z" fill="white"/>
</svg>
